<svg class="svg-icon" style="width: 1em; height: 1em;vertical-align: middle;fill: #2b9dde;overflow: transparent;" viewBox="0 0 1024 1024" version="1.1" xmlns="http://www.w3.org/2000/svg"><path d="M880.5 816.6c61.9-53.3 79.2-144.6 36.8-217.9C885.2 543.1 827 512 767 512c-29.4 0-59.2 7.5-86.5 23.3-82.9 47.9-111.3 153.9-63.5 236.8 10.3 17.9 23.3 33.2 38.2 45.8l-62 107.5 47.1-12.2 13 46.9 62.9-108.9c16.5 5.1 33.8 7.7 51.2 7.7 17.6 0 35.4-2.7 52.6-8.3L883.2 960l13-46.9 47.1 12.2-62.8-108.7z m-167.2-36c-16.9-9.5-31-23.5-40.8-40.5-14.6-25.3-18.5-54.8-10.9-83 7.6-28.2 25.7-51.8 51-66.4C729.1 581.1 748 576 767 576c18.9 0 37.6 4.9 54.1 14.2 16.9 9.5 31 23.5 40.8 40.5 14.6 25.3 18.5 54.8 10.9 83s-25.7 51.8-51 66.4c-16.6 9.6-35.5 14.7-54.5 14.7-18.9 0-37.6-4.9-54-14.2zM657.6 256c0-17.7-14.3-32-31.9-32H242.3c-17.6 0-31.9 14.3-31.9 32s14.3 32 31.9 32h383.4c17.6 0 31.9-14.3 31.9-32zM657.6 448c0-17.7-14.3-32-31.9-32H242.3c-17.6 0-31.9 14.3-31.9 32s14.3 32 31.9 32h383.4c17.6 0 31.9-14.3 31.9-32zM242.3 608c-17.6 0-31.9 14.3-31.9 32s14.3 32 31.9 32H434c17.6 0 31.9-14.3 31.9-32s-14.3-32-31.9-32H242.3z"  /><path d="M498.1 832H176.5c-17.6 0-31.9-14.3-31.9-32V160c0-17.7 14.3-32 31.9-32H690c17.6 0 31.9 14.3 31.9 32v256c0 17.7 14.3 32 31.9 32 17.6 0 31.9-14.3 31.9-32V128c0-35.3-28.6-64-63.8-64H144.6c-35.2 0-63.8 28.7-63.8 64v704c0 35.3 28.6 64 63.8 64h353.5c17.6 0 31.9-14.3 31.9-32s-14.3-32-31.9-32z"  /></svg>
