<svg xmlns="http://www.w3.org/2000/svg" xmlns:xlink="http://www.w3.org/1999/xlink" width="300" zoomAndPan="magnify" viewBox="0 0 224.87999 225" height="300" preserveAspectRatio="xMidYMid meet" version="1.0"><defs><clipPath id="3fce4118f6"><path d="M 14 51 L 113.695312 51 L 113.695312 106 L 14 106 Z M 14 51 " clip-rule="nonzero"/></clipPath><clipPath id="eee9ab3c25"><path d="M 14 4 L 113.695312 4 L 113.695312 59 L 14 59 Z M 14 4 " clip-rule="nonzero"/></clipPath><clipPath id="0f73e5f6f9"><path d="M 14 51 L 113.695312 51 L 113.695312 223.8125 L 14 223.8125 Z M 14 51 " clip-rule="nonzero"/></clipPath><clipPath id="8f953042a8"><path d="M 14 90 L 113.695312 90 L 113.695312 145 L 14 145 Z M 14 90 " clip-rule="nonzero"/></clipPath><clipPath id="d9a85d25e9"><path d="M 14 129 L 113.695312 129 L 113.695312 185 L 14 185 Z M 14 129 " clip-rule="nonzero"/></clipPath><clipPath id="176d1dc051"><path d="M 108 97 L 113.695312 97 L 113.695312 223.8125 L 108 223.8125 Z M 108 97 " clip-rule="nonzero"/></clipPath><clipPath id="e73e6c6693"><path d="M 77 35 L 113.695312 35 L 113.695312 91 L 77 91 Z M 77 35 " clip-rule="nonzero"/></clipPath><clipPath id="1df6ae7eeb"><path d="M 46 20 L 113.695312 20 L 113.695312 75 L 46 75 Z M 46 20 " clip-rule="nonzero"/></clipPath><clipPath id="8ba0f1ce23"><path d="M 45 35 L 113.695312 35 L 113.695312 91 L 45 91 Z M 45 35 " clip-rule="nonzero"/></clipPath><clipPath id="fdcb374a5b"><path d="M 77 19 L 113.695312 19 L 113.695312 75 L 77 75 Z M 77 19 " clip-rule="nonzero"/></clipPath><clipPath id="e47c7ad4f9"><path d="M 113.796875 51 L 211 51 L 211 106 L 113.796875 106 Z M 113.796875 51 " clip-rule="nonzero"/></clipPath><clipPath id="99c65d0f39"><path d="M 113.796875 4 L 211 4 L 211 59 L 113.796875 59 Z M 113.796875 4 " clip-rule="nonzero"/></clipPath><clipPath id="088befe7e0"><path d="M 113.796875 51 L 211 51 L 211 223.8125 L 113.796875 223.8125 Z M 113.796875 51 " clip-rule="nonzero"/></clipPath><clipPath id="e2db3b3fb6"><path d="M 113.796875 90 L 211 90 L 211 145 L 113.796875 145 Z M 113.796875 90 " clip-rule="nonzero"/></clipPath><clipPath id="0e5df9dc37"><path d="M 113.796875 129 L 211 129 L 211 185 L 113.796875 185 Z M 113.796875 129 " clip-rule="nonzero"/></clipPath><clipPath id="4d1e4a0f97"><path d="M 113.796875 97 L 117 97 L 117 223.8125 L 113.796875 223.8125 Z M 113.796875 97 " clip-rule="nonzero"/></clipPath><clipPath id="f9fc75d23e"><path d="M 113.796875 35 L 180 35 L 180 91 L 113.796875 91 Z M 113.796875 35 " clip-rule="nonzero"/></clipPath><clipPath id="e220ea85bf"><path d="M 113.796875 20 L 149 20 L 149 75 L 113.796875 75 Z M 113.796875 20 " clip-rule="nonzero"/></clipPath><clipPath id="8bf5bb20b9"><path d="M 113.796875 35 L 148 35 L 148 91 L 113.796875 91 Z M 113.796875 35 " clip-rule="nonzero"/></clipPath><clipPath id="2994f43c14"><path d="M 113.796875 19 L 180 19 L 180 75 L 113.796875 75 Z M 113.796875 19 " clip-rule="nonzero"/></clipPath><clipPath id="ba0d27947f"><path d="M 14 48 L 113.695312 48 L 113.695312 104 L 14 104 Z M 14 48 " clip-rule="nonzero"/></clipPath><clipPath id="c70687b0f5"><path d="M 14 1 L 113.695312 1 L 113.695312 57 L 14 57 Z M 14 1 " clip-rule="nonzero"/></clipPath><clipPath id="28dcf68972"><path d="M 14 48 L 113.695312 48 L 113.695312 221 L 14 221 Z M 14 48 " clip-rule="nonzero"/></clipPath><clipPath id="4e820ba10a"><path d="M 14 87 L 113.695312 87 L 113.695312 143 L 14 143 Z M 14 87 " clip-rule="nonzero"/></clipPath><clipPath id="5c730ae3c6"><path d="M 14 126 L 113.695312 126 L 113.695312 182 L 14 182 Z M 14 126 " clip-rule="nonzero"/></clipPath><clipPath id="6ec0a8fa92"><path d="M 108 95 L 113.695312 95 L 113.695312 221 L 108 221 Z M 108 95 " clip-rule="nonzero"/></clipPath><clipPath id="83fd6d76d1"><path d="M 77 33 L 113.695312 33 L 113.695312 88 L 77 88 Z M 77 33 " clip-rule="nonzero"/></clipPath><clipPath id="b8ce99a6b8"><path d="M 46 17 L 113.695312 17 L 113.695312 73 L 46 73 Z M 46 17 " clip-rule="nonzero"/></clipPath><clipPath id="62b5c8b14f"><path d="M 45 32 L 113.695312 32 L 113.695312 88 L 45 88 Z M 45 32 " clip-rule="nonzero"/></clipPath><clipPath id="6616579071"><path d="M 77 17 L 113.695312 17 L 113.695312 72 L 77 72 Z M 77 17 " clip-rule="nonzero"/></clipPath><clipPath id="c80960c202"><path d="M 113.324219 48 L 210 48 L 210 104 L 113.324219 104 Z M 113.324219 48 " clip-rule="nonzero"/></clipPath><clipPath id="0820b70002"><path d="M 113.324219 1 L 210 1 L 210 57 L 113.324219 57 Z M 113.324219 1 " clip-rule="nonzero"/></clipPath><clipPath id="1d29d7c102"><path d="M 113.324219 48 L 210 48 L 210 221 L 113.324219 221 Z M 113.324219 48 " clip-rule="nonzero"/></clipPath><clipPath id="fb6a6bc389"><path d="M 113.324219 87 L 210 87 L 210 143 L 113.324219 143 Z M 113.324219 87 " clip-rule="nonzero"/></clipPath><clipPath id="62cba06ab9"><path d="M 113.324219 126 L 210 126 L 210 182 L 113.324219 182 Z M 113.324219 126 " clip-rule="nonzero"/></clipPath><clipPath id="14453b8d4d"><path d="M 113.324219 95 L 116 95 L 116 221 L 113.324219 221 Z M 113.324219 95 " clip-rule="nonzero"/></clipPath><clipPath id="fdb4a7f61a"><path d="M 113.324219 33 L 179 33 L 179 88 L 113.324219 88 Z M 113.324219 33 " clip-rule="nonzero"/></clipPath><clipPath id="ca9f8bd4c9"><path d="M 113.324219 17 L 149 17 L 149 73 L 113.324219 73 Z M 113.324219 17 " clip-rule="nonzero"/></clipPath><clipPath id="78329183c6"><path d="M 113.324219 32 L 148 32 L 148 88 L 113.324219 88 Z M 113.324219 32 " clip-rule="nonzero"/></clipPath><clipPath id="23bb919663"><path d="M 113.324219 17 L 179 17 L 179 72 L 113.324219 72 Z M 113.324219 17 " clip-rule="nonzero"/></clipPath></defs><g clip-path="url(#3fce4118f6)"><path fill="#00fff7" d="M 112.375 105.800781 C 111.777344 105.800781 111.179688 105.664062 110.628906 105.390625 L 16.5625 58.464844 C 14.617188 57.503906 13.839844 55.152344 14.800781 53.210938 C 15.765625 51.289062 18.125 50.507812 20.070312 51.472656 L 112.375 97.523438 L 204.695312 51.472656 C 206.621094 50.507812 208.980469 51.289062 209.945312 53.210938 C 210.910156 55.152344 210.128906 57.503906 208.199219 58.464844 L 114.132812 105.390625 C 113.582031 105.664062 112.972656 105.800781 112.375 105.800781 " fill-opacity="1" fill-rule="nonzero"/></g><g clip-path="url(#eee9ab3c25)"><path fill="#00fff7" d="M 206.4375 58.878906 C 205.839844 58.878906 205.246094 58.742188 204.695312 58.464844 L 112.375 12.414062 L 20.070312 58.464844 C 18.125 59.429688 15.765625 58.648438 14.800781 56.726562 C 13.839844 54.785156 14.617188 52.433594 16.5625 51.472656 L 110.628906 4.546875 C 111.730469 3.996094 113.03125 3.996094 114.132812 4.546875 L 208.199219 51.472656 C 210.128906 52.433594 210.910156 54.785156 209.945312 56.726562 C 209.253906 58.085938 207.878906 58.878906 206.4375 58.878906 " fill-opacity="1" fill-rule="nonzero"/></g><g clip-path="url(#0f73e5f6f9)"><path fill="#00fff7" d="M 112.375 223.109375 C 111.777344 223.109375 111.179688 222.972656 110.628906 222.699219 L 16.5625 175.773438 C 15.230469 175.117188 14.390625 173.757812 14.390625 172.277344 L 14.390625 54.96875 C 14.390625 52.816406 16.148438 51.058594 18.308594 51.058594 C 20.484375 51.058594 22.226562 52.816406 22.226562 54.96875 L 22.226562 169.863281 L 112.375 214.832031 L 202.519531 169.863281 L 202.519531 54.96875 C 202.519531 52.816406 204.28125 51.058594 206.4375 51.058594 C 208.613281 51.058594 210.359375 52.816406 210.359375 54.96875 L 210.359375 172.277344 C 210.359375 173.757812 209.515625 175.117188 208.199219 175.773438 L 114.132812 222.699219 C 113.582031 222.972656 112.972656 223.109375 112.375 223.109375 " fill-opacity="1" fill-rule="nonzero"/></g><g clip-path="url(#8f953042a8)"><path fill="#00fff7" d="M 112.375 144.953125 C 111.777344 144.953125 111.179688 144.8125 110.628906 144.539062 L 16.5625 97.617188 C 14.617188 96.652344 13.839844 94.300781 14.800781 92.375 C 15.765625 90.4375 18.125 89.65625 20.070312 90.621094 L 112.375 136.671875 L 204.695312 90.621094 C 206.621094 89.65625 208.980469 90.4375 209.945312 92.375 C 210.910156 94.300781 210.128906 96.652344 208.199219 97.617188 L 114.132812 144.539062 C 113.582031 144.8125 112.972656 144.953125 112.375 144.953125 " fill-opacity="1" fill-rule="nonzero"/></g><g clip-path="url(#d9a85d25e9)"><path fill="#00fff7" d="M 112.375 184.101562 C 111.777344 184.101562 111.179688 183.960938 110.628906 183.6875 L 16.5625 136.765625 C 14.617188 135.800781 13.839844 133.464844 14.800781 131.523438 C 15.765625 129.601562 18.125 128.804688 20.070312 129.785156 L 112.375 175.820312 L 204.695312 129.785156 C 206.621094 128.804688 208.980469 129.601562 209.945312 131.523438 C 210.910156 133.464844 210.128906 135.800781 208.199219 136.765625 L 114.132812 183.6875 C 113.582031 183.960938 112.972656 184.101562 112.375 184.101562 " fill-opacity="1" fill-rule="nonzero"/></g><path fill="#00fff7" d="M 81.019531 207.46875 C 78.859375 207.46875 77.097656 205.714844 77.097656 203.558594 L 77.097656 86.25 C 77.097656 84.097656 78.859375 82.339844 81.019531 82.339844 C 83.191406 82.339844 84.9375 84.097656 84.9375 86.25 L 84.9375 203.558594 C 84.9375 205.714844 83.191406 207.46875 81.019531 207.46875 " fill-opacity="1" fill-rule="nonzero"/><path fill="#00fff7" d="M 49.664062 191.828125 C 47.503906 191.828125 45.746094 190.070312 45.746094 187.917969 L 45.746094 70.609375 C 45.746094 68.457031 47.503906 66.699219 49.664062 66.699219 C 51.835938 66.699219 53.582031 68.457031 53.582031 70.609375 L 53.582031 187.917969 C 53.582031 190.070312 51.835938 191.828125 49.664062 191.828125 " fill-opacity="1" fill-rule="nonzero"/><g clip-path="url(#176d1dc051)"><path fill="#00fff7" d="M 112.375 223.109375 C 110.214844 223.109375 108.453125 221.355469 108.453125 219.199219 L 108.453125 101.890625 C 108.453125 99.738281 110.214844 97.980469 112.375 97.980469 C 114.546875 97.980469 116.292969 99.738281 116.292969 101.890625 L 116.292969 219.199219 C 116.292969 221.355469 114.546875 223.109375 112.375 223.109375 " fill-opacity="1" fill-rule="nonzero"/></g><g clip-path="url(#e73e6c6693)"><path fill="#00fff7" d="M 81.21875 90.253906 C 79.777344 90.253906 78.402344 89.472656 77.710938 88.097656 C 76.746094 86.160156 77.527344 83.824219 79.457031 82.84375 L 173.523438 35.921875 C 175.464844 34.960938 177.808594 35.738281 178.789062 37.679688 C 179.753906 39.601562 178.972656 41.953125 177.027344 42.917969 L 82.964844 89.839844 C 82.410156 90.132812 81.816406 90.253906 81.21875 90.253906 " fill-opacity="1" fill-rule="nonzero"/></g><g clip-path="url(#1df6ae7eeb)"><path fill="#00fff7" d="M 50.503906 74.933594 C 49.066406 74.933594 47.6875 74.152344 47 72.777344 C 46.035156 70.839844 46.816406 68.503906 48.746094 67.523438 L 142.808594 20.601562 C 144.753906 19.640625 147.097656 20.417969 148.078125 22.359375 C 149.042969 24.28125 148.261719 26.632812 146.316406 27.597656 L 52.25 74.519531 C 51.699219 74.8125 51.101562 74.933594 50.503906 74.933594 " fill-opacity="1" fill-rule="nonzero"/></g><g clip-path="url(#8ba0f1ce23)"><path fill="#00fff7" d="M 143.820312 90.117188 C 143.238281 90.117188 142.640625 89.976562 142.074219 89.703125 L 48.011719 42.78125 C 46.082031 41.816406 45.285156 39.464844 46.265625 37.523438 C 47.230469 35.601562 49.585938 34.820312 51.515625 35.785156 L 145.582031 82.707031 C 147.527344 83.667969 148.304688 86.023438 147.34375 87.945312 C 146.652344 89.320312 145.257812 90.117188 143.820312 90.117188 " fill-opacity="1" fill-rule="nonzero"/></g><g clip-path="url(#fdcb374a5b)"><path fill="#00fff7" d="M 175.296875 74.414062 C 174.699219 74.414062 174.105469 74.277344 173.550781 74 L 79.488281 27.078125 C 77.542969 26.117188 76.761719 23.761719 77.726562 21.839844 C 78.691406 19.898438 81.050781 19.121094 82.992188 20.082031 L 177.058594 67.003906 C 178.988281 67.96875 179.769531 70.320312 178.804688 72.246094 C 178.113281 73.617188 176.738281 74.414062 175.296875 74.414062 " fill-opacity="1" fill-rule="nonzero"/></g><g clip-path="url(#e47c7ad4f9)"><path fill="#00fff7" d="M 112.375 105.800781 C 111.777344 105.800781 111.179688 105.664062 110.628906 105.390625 L 16.5625 58.464844 C 14.617188 57.503906 13.839844 55.152344 14.800781 53.210938 C 15.765625 51.289062 18.125 50.507812 20.070312 51.472656 L 112.375 97.523438 L 204.695312 51.472656 C 206.621094 50.507812 208.980469 51.289062 209.945312 53.210938 C 210.910156 55.152344 210.128906 57.503906 208.199219 58.464844 L 114.132812 105.390625 C 113.582031 105.664062 112.972656 105.800781 112.375 105.800781 " fill-opacity="1" fill-rule="nonzero"/></g><g clip-path="url(#99c65d0f39)"><path fill="#00fff7" d="M 206.4375 58.878906 C 205.839844 58.878906 205.246094 58.742188 204.695312 58.464844 L 112.375 12.414062 L 20.070312 58.464844 C 18.125 59.429688 15.765625 58.648438 14.800781 56.726562 C 13.839844 54.785156 14.617188 52.433594 16.5625 51.472656 L 110.628906 4.546875 C 111.730469 3.996094 113.03125 3.996094 114.132812 4.546875 L 208.199219 51.472656 C 210.128906 52.433594 210.910156 54.785156 209.945312 56.726562 C 209.253906 58.085938 207.878906 58.878906 206.4375 58.878906 " fill-opacity="1" fill-rule="nonzero"/></g><g clip-path="url(#088befe7e0)"><path fill="#00fff7" d="M 112.375 223.109375 C 111.777344 223.109375 111.179688 222.972656 110.628906 222.699219 L 16.5625 175.773438 C 15.230469 175.117188 14.390625 173.757812 14.390625 172.277344 L 14.390625 54.96875 C 14.390625 52.816406 16.148438 51.058594 18.308594 51.058594 C 20.484375 51.058594 22.226562 52.816406 22.226562 54.96875 L 22.226562 169.863281 L 112.375 214.832031 L 202.519531 169.863281 L 202.519531 54.96875 C 202.519531 52.816406 204.28125 51.058594 206.4375 51.058594 C 208.613281 51.058594 210.359375 52.816406 210.359375 54.96875 L 210.359375 172.277344 C 210.359375 173.757812 209.515625 175.117188 208.199219 175.773438 L 114.132812 222.699219 C 113.582031 222.972656 112.972656 223.109375 112.375 223.109375 " fill-opacity="1" fill-rule="nonzero"/></g><g clip-path="url(#e2db3b3fb6)"><path fill="#00fff7" d="M 112.375 144.953125 C 111.777344 144.953125 111.179688 144.8125 110.628906 144.539062 L 16.5625 97.617188 C 14.617188 96.652344 13.839844 94.300781 14.800781 92.375 C 15.765625 90.4375 18.125 89.65625 20.070312 90.621094 L 112.375 136.671875 L 204.695312 90.621094 C 206.621094 89.65625 208.980469 90.4375 209.945312 92.375 C 210.910156 94.300781 210.128906 96.652344 208.199219 97.617188 L 114.132812 144.539062 C 113.582031 144.8125 112.972656 144.953125 112.375 144.953125 " fill-opacity="1" fill-rule="nonzero"/></g><g clip-path="url(#0e5df9dc37)"><path fill="#00fff7" d="M 112.375 184.101562 C 111.777344 184.101562 111.179688 183.960938 110.628906 183.6875 L 16.5625 136.765625 C 14.617188 135.800781 13.839844 133.464844 14.800781 131.523438 C 15.765625 129.601562 18.125 128.804688 20.070312 129.785156 L 112.375 175.820312 L 204.695312 129.785156 C 206.621094 128.804688 208.980469 129.601562 209.945312 131.523438 C 210.910156 133.464844 210.128906 135.800781 208.199219 136.765625 L 114.132812 183.6875 C 113.582031 183.960938 112.972656 184.101562 112.375 184.101562 " fill-opacity="1" fill-rule="nonzero"/></g><path fill="#00fff7" d="M 143.730469 207.46875 C 141.570312 207.46875 139.808594 205.714844 139.808594 203.558594 L 139.808594 86.25 C 139.808594 84.097656 141.570312 82.339844 143.730469 82.339844 C 145.902344 82.339844 147.648438 84.097656 147.648438 86.25 L 147.648438 203.558594 C 147.648438 205.714844 145.902344 207.46875 143.730469 207.46875 " fill-opacity="1" fill-rule="nonzero"/><path fill="#00fff7" d="M 175.082031 191.828125 C 172.925781 191.828125 171.164062 190.070312 171.164062 187.917969 L 171.164062 70.609375 C 171.164062 68.457031 172.925781 66.699219 175.082031 66.699219 C 177.257812 66.699219 179.003906 68.457031 179.003906 70.609375 L 179.003906 187.917969 C 179.003906 190.070312 177.257812 191.828125 175.082031 191.828125 " fill-opacity="1" fill-rule="nonzero"/><g clip-path="url(#4d1e4a0f97)"><path fill="#00fff7" d="M 112.375 223.109375 C 110.214844 223.109375 108.453125 221.355469 108.453125 219.199219 L 108.453125 101.890625 C 108.453125 99.738281 110.214844 97.980469 112.375 97.980469 C 114.546875 97.980469 116.292969 99.738281 116.292969 101.890625 L 116.292969 219.199219 C 116.292969 221.355469 114.546875 223.109375 112.375 223.109375 " fill-opacity="1" fill-rule="nonzero"/></g><g clip-path="url(#f9fc75d23e)"><path fill="#00fff7" d="M 81.21875 90.253906 C 79.777344 90.253906 78.402344 89.472656 77.710938 88.097656 C 76.746094 86.160156 77.527344 83.824219 79.457031 82.84375 L 173.523438 35.921875 C 175.464844 34.960938 177.808594 35.738281 178.789062 37.679688 C 179.753906 39.601562 178.972656 41.953125 177.027344 42.917969 L 82.964844 89.839844 C 82.410156 90.132812 81.816406 90.253906 81.21875 90.253906 " fill-opacity="1" fill-rule="nonzero"/></g><g clip-path="url(#e220ea85bf)"><path fill="#00fff7" d="M 50.503906 74.933594 C 49.066406 74.933594 47.6875 74.152344 47 72.777344 C 46.035156 70.839844 46.816406 68.503906 48.746094 67.523438 L 142.808594 20.601562 C 144.753906 19.640625 147.097656 20.417969 148.078125 22.359375 C 149.042969 24.28125 148.261719 26.632812 146.316406 27.597656 L 52.25 74.519531 C 51.699219 74.8125 51.101562 74.933594 50.503906 74.933594 " fill-opacity="1" fill-rule="nonzero"/></g><g clip-path="url(#8bf5bb20b9)"><path fill="#00fff7" d="M 143.820312 90.117188 C 143.238281 90.117188 142.640625 89.976562 142.074219 89.703125 L 48.011719 42.78125 C 46.082031 41.816406 45.285156 39.464844 46.265625 37.523438 C 47.230469 35.601562 49.585938 34.820312 51.515625 35.785156 L 145.582031 82.707031 C 147.527344 83.667969 148.304688 86.023438 147.34375 87.945312 C 146.652344 89.320312 145.257812 90.117188 143.820312 90.117188 " fill-opacity="1" fill-rule="nonzero"/></g><g clip-path="url(#2994f43c14)"><path fill="#00fff7" d="M 175.296875 74.414062 C 174.699219 74.414062 174.105469 74.277344 173.550781 74 L 79.488281 27.078125 C 77.542969 26.117188 76.761719 23.761719 77.726562 21.839844 C 78.691406 19.898438 81.050781 19.121094 82.992188 20.082031 L 177.058594 67.003906 C 178.988281 67.96875 179.769531 70.320312 178.804688 72.246094 C 178.113281 73.617188 176.738281 74.414062 175.296875 74.414062 " fill-opacity="1" fill-rule="nonzero"/></g><g clip-path="url(#ba0d27947f)"><path fill="#14253d" d="M 112.375 103.339844 C 111.777344 103.339844 111.179688 103.199219 110.628906 102.925781 L 16.5625 56.003906 C 14.617188 55.039062 13.839844 52.6875 14.800781 50.75 C 15.765625 48.824219 18.125 48.042969 20.070312 49.007812 L 112.375 95.058594 L 204.695312 49.007812 C 206.621094 48.042969 208.980469 48.824219 209.945312 50.75 C 210.910156 52.6875 210.128906 55.039062 208.199219 56.003906 L 114.132812 102.925781 C 113.582031 103.199219 112.972656 103.339844 112.375 103.339844 " fill-opacity="1" fill-rule="nonzero"/></g><g clip-path="url(#c70687b0f5)"><path fill="#14253d" d="M 206.4375 56.414062 C 205.839844 56.414062 205.246094 56.277344 204.695312 56.003906 L 112.375 9.949219 L 20.070312 56.003906 C 18.125 56.964844 15.765625 56.1875 14.800781 54.261719 C 13.839844 52.320312 14.617188 49.96875 16.5625 49.007812 L 110.628906 2.082031 C 111.730469 1.535156 113.03125 1.535156 114.132812 2.082031 L 208.199219 49.007812 C 210.128906 49.96875 210.910156 52.320312 209.945312 54.261719 C 209.253906 55.621094 207.878906 56.414062 206.4375 56.414062 " fill-opacity="1" fill-rule="nonzero"/></g><g clip-path="url(#28dcf68972)"><path fill="#14253d" d="M 112.375 220.648438 C 111.777344 220.648438 111.179688 220.507812 110.628906 220.234375 L 16.5625 173.3125 C 15.230469 172.65625 14.390625 171.296875 14.390625 169.8125 L 14.390625 52.503906 C 14.390625 50.351562 16.148438 48.59375 18.308594 48.59375 C 20.484375 48.59375 22.226562 50.351562 22.226562 52.503906 L 22.226562 167.398438 L 112.375 212.367188 L 202.519531 167.398438 L 202.519531 52.503906 C 202.519531 50.351562 204.28125 48.59375 206.4375 48.59375 C 208.613281 48.59375 210.359375 50.351562 210.359375 52.503906 L 210.359375 169.8125 C 210.359375 171.296875 209.515625 172.65625 208.199219 173.3125 L 114.132812 220.234375 C 113.582031 220.507812 112.972656 220.648438 112.375 220.648438 " fill-opacity="1" fill-rule="nonzero"/></g><g clip-path="url(#4e820ba10a)"><path fill="#14253d" d="M 112.375 142.488281 C 111.777344 142.488281 111.179688 142.351562 110.628906 142.074219 L 16.5625 95.152344 C 14.617188 94.1875 13.839844 91.835938 14.800781 89.914062 C 15.765625 87.972656 18.125 87.195312 20.070312 88.15625 L 112.375 134.207031 L 204.695312 88.15625 C 206.621094 87.195312 208.980469 87.972656 209.945312 89.914062 C 210.910156 91.835938 210.128906 94.1875 208.199219 95.152344 L 114.132812 142.074219 C 113.582031 142.351562 112.972656 142.488281 112.375 142.488281 " fill-opacity="1" fill-rule="nonzero"/></g><g clip-path="url(#5c730ae3c6)"><path fill="#14253d" d="M 112.375 181.636719 C 111.777344 181.636719 111.179688 181.5 110.628906 181.222656 L 16.5625 134.300781 C 14.617188 133.335938 13.839844 131 14.800781 129.0625 C 15.765625 127.136719 18.125 126.34375 20.070312 127.320312 L 112.375 173.355469 L 204.695312 127.320312 C 206.621094 126.34375 208.980469 127.136719 209.945312 129.0625 C 210.910156 131 210.128906 133.335938 208.199219 134.300781 L 114.132812 181.222656 C 113.582031 181.5 112.972656 181.636719 112.375 181.636719 " fill-opacity="1" fill-rule="nonzero"/></g><path fill="#14253d" d="M 81.019531 205.007812 C 78.859375 205.007812 77.097656 203.25 77.097656 201.09375 L 77.097656 83.789062 C 77.097656 81.632812 78.859375 79.875 81.019531 79.875 C 83.191406 79.875 84.9375 81.632812 84.9375 83.789062 L 84.9375 201.09375 C 84.9375 203.25 83.191406 205.007812 81.019531 205.007812 " fill-opacity="1" fill-rule="nonzero"/><path fill="#14253d" d="M 49.664062 189.363281 C 47.503906 189.363281 45.746094 187.609375 45.746094 185.453125 L 45.746094 68.144531 C 45.746094 65.992188 47.503906 64.234375 49.664062 64.234375 C 51.835938 64.234375 53.582031 65.992188 53.582031 68.144531 L 53.582031 185.453125 C 53.582031 187.609375 51.835938 189.363281 49.664062 189.363281 " fill-opacity="1" fill-rule="nonzero"/><g clip-path="url(#6ec0a8fa92)"><path fill="#14253d" d="M 112.375 220.648438 C 110.214844 220.648438 108.453125 218.890625 108.453125 216.738281 L 108.453125 99.429688 C 108.453125 97.273438 110.214844 95.519531 112.375 95.519531 C 114.546875 95.519531 116.292969 97.273438 116.292969 99.429688 L 116.292969 216.738281 C 116.292969 218.890625 114.546875 220.648438 112.375 220.648438 " fill-opacity="1" fill-rule="nonzero"/></g><g clip-path="url(#83fd6d76d1)"><path fill="#14253d" d="M 81.21875 87.789062 C 79.777344 87.789062 78.402344 87.011719 77.710938 85.636719 C 76.746094 83.695312 77.527344 81.359375 79.457031 80.382812 L 173.523438 33.457031 C 175.464844 32.496094 177.808594 33.273438 178.789062 35.214844 C 179.753906 37.140625 178.972656 39.492188 177.027344 40.453125 L 82.964844 87.375 C 82.410156 87.667969 81.816406 87.789062 81.21875 87.789062 " fill-opacity="1" fill-rule="nonzero"/></g><g clip-path="url(#b8ce99a6b8)"><path fill="#14253d" d="M 50.503906 72.46875 C 49.066406 72.46875 47.6875 71.691406 47 70.316406 C 46.035156 68.375 46.816406 66.039062 48.746094 65.0625 L 142.808594 18.136719 C 144.753906 17.175781 147.097656 17.953125 148.078125 19.894531 C 149.042969 21.820312 148.261719 24.171875 146.316406 25.132812 L 52.25 72.054688 C 51.699219 72.347656 51.101562 72.46875 50.503906 72.46875 " fill-opacity="1" fill-rule="nonzero"/></g><g clip-path="url(#62b5c8b14f)"><path fill="#14253d" d="M 143.820312 87.652344 C 143.238281 87.652344 142.640625 87.515625 142.074219 87.238281 L 48.011719 40.316406 C 46.082031 39.355469 45.285156 37 46.265625 35.0625 C 47.230469 33.136719 49.585938 32.359375 51.515625 33.320312 L 145.582031 80.242188 C 147.527344 81.207031 148.304688 83.558594 147.34375 85.484375 C 146.652344 86.855469 145.257812 87.652344 143.820312 87.652344 " fill-opacity="1" fill-rule="nonzero"/></g><g clip-path="url(#6616579071)"><path fill="#14253d" d="M 175.296875 71.949219 C 174.699219 71.949219 174.105469 71.8125 173.550781 71.535156 L 79.488281 24.613281 C 77.542969 23.652344 76.761719 21.300781 77.726562 19.375 C 78.691406 17.433594 81.050781 16.65625 82.992188 17.617188 L 177.058594 64.542969 C 178.988281 65.503906 179.769531 67.855469 178.804688 69.78125 C 178.113281 71.15625 176.738281 71.949219 175.296875 71.949219 " fill-opacity="1" fill-rule="nonzero"/></g><g clip-path="url(#c80960c202)"><path fill="#14253d" d="M 111.902344 103.339844 C 111.304688 103.339844 110.707031 103.199219 110.15625 102.925781 L 16.09375 56.003906 C 14.148438 55.039062 13.367188 52.6875 14.332031 50.75 C 15.296875 48.824219 17.652344 48.042969 19.597656 49.007812 L 111.902344 95.058594 L 204.222656 49.007812 C 206.152344 48.042969 208.507812 48.824219 209.472656 50.75 C 210.4375 52.6875 209.65625 55.039062 207.730469 56.003906 L 113.664062 102.925781 C 113.113281 103.199219 112.5 103.339844 111.902344 103.339844 " fill-opacity="1" fill-rule="nonzero"/></g><g clip-path="url(#0820b70002)"><path fill="#14253d" d="M 205.96875 56.414062 C 205.371094 56.414062 204.773438 56.277344 204.222656 56.003906 L 111.902344 9.949219 L 19.597656 56.003906 C 17.652344 56.964844 15.296875 56.1875 14.332031 54.261719 C 13.367188 52.320312 14.148438 49.96875 16.09375 49.007812 L 110.15625 2.082031 C 111.261719 1.535156 112.5625 1.535156 113.664062 2.082031 L 207.730469 49.007812 C 209.65625 49.96875 210.4375 52.320312 209.472656 54.261719 C 208.785156 55.621094 207.40625 56.414062 205.96875 56.414062 " fill-opacity="1" fill-rule="nonzero"/></g><g clip-path="url(#1d29d7c102)"><path fill="#14253d" d="M 111.902344 220.648438 C 111.304688 220.648438 110.707031 220.507812 110.15625 220.234375 L 16.09375 173.3125 C 14.761719 172.65625 13.917969 171.296875 13.917969 169.8125 L 13.917969 52.503906 C 13.917969 50.351562 15.679688 48.59375 17.835938 48.59375 C 20.011719 48.59375 21.757812 50.351562 21.757812 52.503906 L 21.757812 167.398438 L 111.902344 212.367188 L 202.046875 167.398438 L 202.046875 52.503906 C 202.046875 50.351562 203.808594 48.59375 205.96875 48.59375 C 208.140625 48.59375 209.886719 50.351562 209.886719 52.503906 L 209.886719 169.8125 C 209.886719 171.296875 209.046875 172.65625 207.730469 173.3125 L 113.664062 220.234375 C 113.113281 220.507812 112.5 220.648438 111.902344 220.648438 " fill-opacity="1" fill-rule="nonzero"/></g><g clip-path="url(#fb6a6bc389)"><path fill="#14253d" d="M 111.902344 142.488281 C 111.304688 142.488281 110.707031 142.351562 110.15625 142.074219 L 16.09375 95.152344 C 14.148438 94.1875 13.367188 91.835938 14.332031 89.914062 C 15.296875 87.972656 17.652344 87.195312 19.597656 88.15625 L 111.902344 134.207031 L 204.222656 88.15625 C 206.152344 87.195312 208.507812 87.972656 209.472656 89.914062 C 210.4375 91.835938 209.65625 94.1875 207.730469 95.152344 L 113.664062 142.074219 C 113.113281 142.351562 112.5 142.488281 111.902344 142.488281 " fill-opacity="1" fill-rule="nonzero"/></g><g clip-path="url(#62cba06ab9)"><path fill="#14253d" d="M 111.902344 181.636719 C 111.304688 181.636719 110.707031 181.5 110.15625 181.222656 L 16.09375 134.300781 C 14.148438 133.335938 13.367188 131 14.332031 129.0625 C 15.296875 127.136719 17.652344 126.34375 19.597656 127.320312 L 111.902344 173.355469 L 204.222656 127.320312 C 206.152344 126.34375 208.507812 127.136719 209.472656 129.0625 C 210.4375 131 209.65625 133.335938 207.730469 134.300781 L 113.664062 181.222656 C 113.113281 181.5 112.5 181.636719 111.902344 181.636719 " fill-opacity="1" fill-rule="nonzero"/></g><path fill="#14253d" d="M 143.257812 205.007812 C 141.097656 205.007812 139.339844 203.25 139.339844 201.09375 L 139.339844 83.789062 C 139.339844 81.632812 141.097656 79.875 143.257812 79.875 C 145.433594 79.875 147.175781 81.632812 147.175781 83.789062 L 147.175781 201.09375 C 147.175781 203.25 145.433594 205.007812 143.257812 205.007812 " fill-opacity="1" fill-rule="nonzero"/><path fill="#14253d" d="M 174.613281 189.363281 C 172.453125 189.363281 170.695312 187.609375 170.695312 185.453125 L 170.695312 68.144531 C 170.695312 65.992188 172.453125 64.234375 174.613281 64.234375 C 176.785156 64.234375 178.53125 65.992188 178.53125 68.144531 L 178.53125 185.453125 C 178.53125 187.609375 176.785156 189.363281 174.613281 189.363281 " fill-opacity="1" fill-rule="nonzero"/><g clip-path="url(#14453b8d4d)"><path fill="#14253d" d="M 111.902344 220.648438 C 109.742188 220.648438 107.984375 218.890625 107.984375 216.738281 L 107.984375 99.429688 C 107.984375 97.273438 109.742188 95.519531 111.902344 95.519531 C 114.078125 95.519531 115.820312 97.273438 115.820312 99.429688 L 115.820312 216.738281 C 115.820312 218.890625 114.078125 220.648438 111.902344 220.648438 " fill-opacity="1" fill-rule="nonzero"/></g><g clip-path="url(#fdb4a7f61a)"><path fill="#14253d" d="M 80.746094 87.789062 C 79.308594 87.789062 77.929688 87.011719 77.242188 85.636719 C 76.277344 83.695312 77.058594 81.359375 78.984375 80.382812 L 173.050781 33.457031 C 174.996094 32.496094 177.339844 33.273438 178.316406 35.214844 C 179.28125 37.140625 178.5 39.492188 176.558594 40.453125 L 82.492188 87.375 C 81.941406 87.667969 81.34375 87.789062 80.746094 87.789062 " fill-opacity="1" fill-rule="nonzero"/></g><g clip-path="url(#ca9f8bd4c9)"><path fill="#14253d" d="M 50.035156 72.46875 C 48.59375 72.46875 47.21875 71.691406 46.527344 70.316406 C 45.5625 68.375 46.34375 66.039062 48.273438 65.0625 L 142.339844 18.136719 C 144.285156 17.175781 146.625 17.953125 147.605469 19.894531 C 148.570312 21.820312 147.789062 24.171875 145.84375 25.132812 L 51.78125 72.054688 C 51.230469 72.347656 50.632812 72.46875 50.035156 72.46875 " fill-opacity="1" fill-rule="nonzero"/></g><g clip-path="url(#78329183c6)"><path fill="#14253d" d="M 143.351562 87.652344 C 142.769531 87.652344 142.171875 87.515625 141.605469 87.238281 L 47.539062 40.316406 C 45.609375 39.355469 44.8125 37 45.792969 35.0625 C 46.757812 33.136719 49.117188 32.359375 51.046875 33.320312 L 145.109375 80.242188 C 147.054688 81.207031 147.835938 83.558594 146.871094 85.484375 C 146.183594 86.855469 144.789062 87.652344 143.351562 87.652344 " fill-opacity="1" fill-rule="nonzero"/></g><g clip-path="url(#23bb919663)"><path fill="#14253d" d="M 174.828125 71.949219 C 174.230469 71.949219 173.632812 71.8125 173.082031 71.535156 L 79.015625 24.613281 C 77.074219 23.652344 76.292969 21.300781 77.257812 19.375 C 78.21875 17.433594 80.578125 16.65625 82.523438 17.617188 L 176.589844 64.542969 C 178.515625 65.503906 179.296875 67.855469 178.332031 69.78125 C 177.644531 71.15625 176.265625 71.949219 174.828125 71.949219 " fill-opacity="1" fill-rule="nonzero"/></g></svg>